<svg xmlns="http://www.w3.org/2000/svg" version="1.1" xmlns:xlink="http://www.w3.org/1999/xlink" xmlns:svgjs="http://svgjs.dev/svgjs" width="1500" height="450" viewBox="0 0 1500 450"><g transform="matrix(1,0,0,1,5.341374628395101,-1.740739269076954)"><svg viewBox="0 0 396 119" data-background-color="#ffffff" preserveAspectRatio="xMidYMid meet" height="450" width="1500" xmlns="http://www.w3.org/2000/svg" xmlns:xlink="http://www.w3.org/1999/xlink"><g id="tight-bounds" transform="matrix(1,0,0,1,0.2400000000000091,0.4603288289336831)"><svg viewBox="0 0 395.52 118.07934234213262" height="118.07934234213262" width="395.52"><g><svg viewBox="0 0 586.3575871816519 175.05238236177473" height="118.07934234213262" width="395.52"><g transform="matrix(1,0,0,1,190.83758718165186,54.09372701706484)"><svg viewBox="0 0 395.52 66.86492832764505" height="66.86492832764505" width="395.52"><g id="textblocktransform"><svg viewBox="0 0 395.52 66.86492832764505" height="66.86492832764505" width="395.52" id="textblock"><g><svg viewBox="0 0 395.52 66.86492832764505" height="66.86492832764505" width="395.52"><g transform="matrix(1,0,0,1,0,0)"><svg width="395.52" viewBox="0.85 -36.5 219.73000000000002 37.15" height="66.86492832764505" data-palette-color="#0077b6"><path d="M24.9-34.65Q25.6-34.65 25.6-33.55L25.6-33.55Q25.6-32.8 25.28-32.05 24.95-31.3 24.45-31.1L24.45-31.1 23.15-31.4Q17.95-32.55 15.2-32.75L15.2-32.75 15.25-5.7Q15.25-2.05 15.9-0.35L15.9-0.35Q14.85 0.55 13.55 0.55L13.55 0.55Q12.55 0.55 11.9-0.05 11.25-0.65 11.25-1.65L11.25-1.65 11.2-32.75Q9.4-32.6 7.63-32.27 5.85-31.95 3.1-31.35L3.1-31.35 2-31.1Q1.5-31.3 1.18-32.05 0.85-32.8 0.85-33.55L0.85-33.55Q0.85-34.65 1.55-34.65L1.55-34.65 24.9-34.65ZM40.05 0.65Q34.65 0.65 31.62-2.88 28.6-6.4 28.6-12.7L28.6-12.7Q28.6-19 31.62-22.53 34.65-26.05 40.05-26.05L40.05-26.05Q45.5-26.05 48.52-22.53 51.55-19 51.55-12.7L51.55-12.7Q51.55-6.4 48.52-2.88 45.5 0.65 40.05 0.65L40.05 0.65ZM40.05-1.15Q43.55-1.15 45.4-4.13 47.25-7.1 47.25-12.7L47.25-12.7Q47.25-18.3 45.4-21.25 43.55-24.2 40.05-24.2L40.05-24.2Q36.55-24.2 34.7-21.25 32.85-18.3 32.85-12.7L32.85-12.7Q32.85-7.1 34.7-4.13 36.55-1.15 40.05-1.15L40.05-1.15ZM78.59-5.7Q78.7-1.9 79.25-0.35L79.25-0.35Q78.25 0.55 76.95 0.55L76.95 0.55Q75.9 0.55 75.25-0.05 74.59-0.65 74.59-1.65L74.59-1.65 74.59-15.15Q74.55-19.5 73.37-21.6 72.2-23.7 69.4-23.7L69.4-23.7Q67.65-23.7 66.02-22.5 64.4-21.3 63.35-18.7 62.3-16.1 62.3-12.05L62.3-12.05Q62.3-5.6 62.4-3.65 62.5-1.7 63-0.35L63-0.35Q61.95 0.55 60.7 0.55L60.7 0.55Q59.65 0.55 59-0.1 58.35-0.75 58.35-1.85L58.35-1.85 58.35-20.3Q58.3-21.7 57.97-22.3 57.65-22.9 56.95-22.9L56.95-22.9Q56-22.9 55.65-22.1L55.65-22.1Q55.05-22.95 55.05-23.7L55.05-23.7Q55.05-24.75 55.85-25.38 56.65-26 58.05-26L58.05-26Q59.95-26 60.95-24.7 61.95-23.4 61.95-20.85L61.95-20.85 61.95-19.85Q63-22.8 65.25-24.43 67.5-26.05 70.55-26.05L70.55-26.05Q78.59-26.05 78.59-15.65L78.59-15.65 78.59-5.7ZM107.34-34.65Q108.04-34.65 108.04-33.55L108.04-33.55Q108.04-32.8 107.72-32.05 107.39-31.3 106.89-31.1L106.89-31.1 105.59-31.4Q100.39-32.55 97.64-32.75L97.64-32.75 97.69-5.7Q97.69-2.05 98.34-0.35L98.34-0.35Q97.29 0.55 95.99 0.55L95.99 0.55Q94.99 0.55 94.34-0.05 93.69-0.65 93.69-1.65L93.69-1.65 93.64-32.75Q91.84-32.6 90.07-32.27 88.29-31.95 85.54-31.35L85.54-31.35 84.44-31.1Q83.94-31.3 83.62-32.05 83.29-32.8 83.29-33.55L83.29-33.55Q83.29-34.65 83.99-34.65L83.99-34.65 107.34-34.65ZM123.64-26.05Q126.24-26.05 127.82-24.68 129.39-23.3 129.39-20.85L129.39-20.85Q129.39-19.2 128.44-18.13 127.49-17.05 126.19-17.05L126.19-17.05Q125.09-17.05 124.69-17.55L124.69-17.55Q125.24-18.4 125.44-19.13 125.64-19.85 125.64-20.75L125.64-20.75Q125.64-23.85 122.74-23.85L122.74-23.85Q120.49-23.85 118.97-20.98 117.44-18.1 117.44-12.05L117.44-12.05 117.44-9.35Q117.44-4.85 117.54-3.25 117.64-1.65 118.09-0.45L118.09-0.45Q117.04 0.45 115.74 0.45L115.74 0.45Q114.74 0.45 114.09-0.18 113.44-0.8 113.44-1.9L113.44-1.9 113.44-20.3Q113.44-21.7 113.12-22.3 112.79-22.9 112.04-22.9L112.04-22.9Q111.09-22.9 110.74-22.1L110.74-22.1Q110.14-22.95 110.14-23.7L110.14-23.7Q110.14-24.75 110.94-25.38 111.74-26 113.14-26L113.14-26Q115.09-26 116.07-24.63 117.04-23.25 116.99-20.55L116.99-20.55 116.99-20.3Q117.84-23.15 119.54-24.6 121.24-26.05 123.64-26.05L123.64-26.05ZM157.34-3.65Q157.89-2.9 157.89-2.1L157.89-2.1Q157.89-1 156.86-0.25 155.84 0.5 154.39 0.5L154.39 0.5Q152.24 0.5 151.14-1 150.04-2.5 150.04-5.7L150.04-5.7 150.04-7.15Q148.39-3.6 145.56-1.53 142.74 0.55 139.39 0.55L139.39 0.55Q136.49 0.55 134.81-1.03 133.14-2.6 133.14-5.25L133.14-5.25Q133.14-8.2 135.39-10.25 137.64-12.3 141.44-13.35L141.44-13.35Q144.79-14.25 148.39-14.25L148.39-14.25Q149.39-14.25 149.84-14.2L149.84-14.2 149.84-15.5Q149.84-19.95 148.36-22.1 146.89-24.25 143.49-24.25L143.49-24.25Q141.29-24.25 139.79-23.3 138.29-22.35 138.29-20.2L138.29-20.2Q138.29-19.05 138.81-18.05 139.34-17.05 140.44-16.65L140.44-16.65Q139.64-15.65 138.04-15.65L138.04-15.65Q136.39-15.65 135.34-16.98 134.29-18.3 134.29-20.05L134.29-20.05Q134.29-22.95 136.84-24.5 139.39-26.05 143.84-26.05L143.84-26.05Q148.99-26.05 151.44-23.4 153.89-20.75 153.89-15.25L153.89-15.25 153.89-5.25Q153.89-2.6 155.69-2.6L155.69-2.6Q156.09-2.6 156.59-2.88 157.09-3.15 157.34-3.65L157.34-3.65ZM140.99-2.25Q142.99-2.25 145.06-3.73 147.14-5.2 148.51-7.6 149.89-10 149.94-12.6L149.94-12.6 148.79-12.65Q147.04-12.65 145.24-12.38 143.44-12.1 142.19-11.6L142.19-11.6Q139.99-10.8 138.74-9.4 137.49-8 137.49-6.1L137.49-6.1Q137.49-4.45 138.34-3.35 139.19-2.25 140.99-2.25L140.99-2.25ZM179.59-25.7Q181.94-25.7 181.89-23.85L181.89-23.85Q181.89-22.75 181.44-21.6L181.44-21.6 173.09-0.1Q171.74 0.55 170.39 0.55L170.39 0.55Q168.54 0.55 168.04-0.95L168.04-0.95 160.14-22.45Q159.54-24.1 158.99-24.75L158.99-24.75Q159.84-25.7 161.34-25.7L161.34-25.7Q162.24-25.7 162.89-25.28 163.54-24.85 163.74-24.05L163.74-24.05 170.94-2.05 177.59-22.55Q177.84-23.8 177.84-24.15L177.84-24.15Q177.84-24.95 177.59-25.3L177.59-25.3Q178.54-25.7 179.59-25.7L179.59-25.7ZM205.08-6.45Q205.83-6.2 205.83-5.3L205.83-5.3Q205.83-4.8 205.53-3.95L205.53-3.95Q204.58-1.75 202.21-0.55 199.83 0.65 196.63 0.65L196.63 0.65Q191.13 0.65 188.03-2.78 184.93-6.2 184.93-12.55L184.93-12.55Q184.93-18.85 188.01-22.45 191.08-26.05 196.83-26.05L196.83-26.05Q200.98-26.05 203.48-24.18 205.98-22.3 205.98-18.85L205.98-18.85Q205.98-15.15 202.98-13.2 199.98-11.25 194.63-11.25L194.63-11.25Q191.68-11.25 189.23-11.6L189.23-11.6Q189.53-6.55 191.76-4.33 193.98-2.1 197.58-2.1L197.58-2.1Q200.33-2.1 202.33-3.23 204.33-4.35 205.08-6.45L205.08-6.45ZM196.68-24.25Q193.28-24.25 191.26-21.43 189.23-18.6 189.18-13.3L189.18-13.3Q191.58-13.1 193.08-13.05L193.08-13.05Q197.08-13.05 199.41-14.48 201.73-15.9 201.73-19.35L201.73-19.35Q201.73-22 200.28-23.13 198.83-24.25 196.68-24.25L196.68-24.25ZM217.03 0.5Q214.78 0.5 213.53-0.95 212.28-2.4 212.28-5.05L212.28-5.05 212.28-34.3Q212.28-35.35 212.93-35.93 213.58-36.5 214.63-36.5L214.63-36.5Q215.88-36.5 216.93-35.6L216.93-35.6Q216.53-34.3 216.41-32.25 216.28-30.2 216.28-25.85L216.28-25.85 216.28-5.25Q216.28-3.95 216.76-3.28 217.23-2.6 218.18-2.6L218.18-2.6Q218.73-2.6 219.26-2.88 219.78-3.15 220.03-3.65L220.03-3.65Q220.58-2.9 220.58-2.1L220.58-2.1Q220.58-0.95 219.56-0.23 218.53 0.5 217.03 0.5L217.03 0.5Z" opacity="1" transform="matrix(1,0,0,1,0,0)" fill="#0077b6" class="wordmark-text-0" data-fill-palette-color="primary" id="text-0"></path></svg></g></svg></g></svg></g></svg></g><g><svg viewBox="0 0 175.05238236177473 175.05238236177473" height="175.05238236177473" width="175.05238236177473"><g><svg xmlns="http://www.w3.org/2000/svg" xmlns:xlink="http://www.w3.org/1999/xlink" version="1.1" x="0" y="0" viewBox="0 0 100 100" enable-background="new 0 0 100 100" xml:space="preserve" height="175.05238236177473" width="175.05238236177473" class="icon-icon-0" data-fill-palette-color="accent" id="icon-0"><g fill="#0077b6" data-fill-palette-color="accent"><path fill="#0077b6" d="M50 0C22.43 0 0 22.43 0 50S22.43 100 50 100 100 77.57 100 50 77.57 0 50 0M84.24 21.362C83.725 22.847 81.67 24.354 78.378 25.682 77.068 22.543 75.5 19.602 73.681 16.926 71.237 13.33 68.456 10.377 65.442 8.101A44.7 44.7 0 0 1 84.24 21.362M75.85 26.591C72.257 27.737 67.656 28.685 62.285 29.27 61.764 25.096 61.085 21.226 60.255 17.802 58.979 12.537 57.42 8.649 55.598 6.127 64.148 8.473 71.439 16.082 75.85 26.591M50 5.357C54.187 5.357 57.814 15.171 59.613 29.522 56.603 29.771 53.39 29.911 50 29.911S43.396 29.771 40.387 29.522C42.186 15.172 45.813 5.357 50 5.357M39.746 17.802C38.916 21.226 38.237 25.096 37.716 29.27 32.345 28.685 27.743 27.738 24.151 26.591 28.561 16.082 35.851 8.473 44.403 6.127 42.581 8.648 41.022 12.537 39.746 17.802M34.559 8.102C31.544 10.378 28.764 13.331 26.319 16.927 24.499 19.603 22.931 22.544 21.622 25.683 18.33 24.355 16.274 22.848 15.76 21.363A44.7 44.7 0 0 1 34.559 8.102M19.933 82.998C22.28 83.86 24.966 84.598 27.876 85.204 29.922 87.85 32.165 90.092 34.559 91.898A44.6 44.6 0 0 1 19.933 82.998M32.011 85.957C34.934 86.419 38.002 86.764 41.114 86.991 42.089 89.896 43.187 92.19 44.403 93.873 39.83 92.618 35.617 89.863 32.011 85.957M50 94.643C47.783 94.643 45.723 91.887 44.006 87.167 46.01 87.266 48.017 87.316 50 87.316 52.04 87.316 54.038 87.268 55.988 87.179 54.273 91.892 52.215 94.643 50 94.643M58.877 87.018C62.069 86.797 65.101 86.457 67.934 86.015 64.341 89.889 60.148 92.625 55.597 93.873 56.809 92.195 57.904 89.912 58.877 87.018M65.441 91.898C67.818 90.104 70.044 87.881 72.079 85.26 75.046 84.639 77.72 83.894 80.023 83.039A44.6 44.6 0 0 1 65.441 91.898M86.366 75.877L86.324 75.855C85.139 78.045 80.891 80.272 74.418 81.937 78.316 75.819 80.979 68.448 82.224 60.474 82.6 60.369 82.98 60.265 83.346 60.156 88.2 58.713 91.884 57.013 94.343 55.114A44.4 44.4 0 0 1 86.366 75.877M89.301 55.025L86.239 57.019C85.961 57.201 82.118 59.675 76.615 61.812A90 90 0 0 0 79.391 61.204C77.912 69.625 74.8 77.078 70.585 82.801 67.349 83.439 63.701 83.942 59.717 84.259 59.9 83.595 60.079 82.913 60.253 82.198 61.456 77.234 62.342 71.335 62.883 64.919 62.445 64.938 62.007 64.949 61.568 64.949H60.188C59.526 72.632 58.376 79.361 56.88 84.451A128 128 0 0 1 43.119 84.456C41.623 79.366 40.473 72.636 39.811 64.95H37.119C37.661 71.354 38.545 77.243 39.746 82.198 39.92 82.917 40.101 83.602 40.286 84.27 36.299 83.96 32.664 83.467 29.444 82.841 25.806 77.914 22.995 71.695 21.333 64.682 20.333 64.603 19.4 64.505 18.528 64.389 19.96 70.877 22.349 76.875 25.616 81.988 18.823 80.258 14.512 77.896 13.542 75.575L13.447 75.614A44.4 44.4 0 0 1 5.657 55.113 20 20 0 0 0 7.992 56.643C8.058 55.653 8.358 54.778 8.825 54.014 7.213 53.042 6.048 52.034 5.384 51.021 5.375 50.68 5.357 50.343 5.357 50A44.43 44.43 0 0 1 13.987 23.627C15.242 25.375 17.583 26.88 20.666 28.13 18.504 34.095 17.257 40.695 17.015 47.558 17.813 47.108 18.723 46.707 19.753 46.398 20.093 40.168 21.293 34.295 23.192 29.048 27.227 30.359 32.153 31.314 37.413 31.9A169 169 0 0 0 36.556 45.605C37.489 45.61 38.389 45.618 39.233 45.625 39.345 40.882 39.637 36.357 40.081 32.166A116 116 0 0 0 59.919 32.166C60.131 34.172 60.309 36.256 60.448 38.402H63.12A162 162 0 0 0 62.586 31.9C67.847 31.314 72.773 30.359 76.808 29.048A58.6 58.6 0 0 1 79.403 38.879H82.125C81.501 35.136 80.567 31.53 79.335 28.13 82.419 26.88 84.759 25.375 86.015 23.627A44.43 44.43 0 0 1 94.644 50C94.644 50.343 94.626 50.68 94.619 51.021 93.718 52.392 91.9 53.755 89.301 55.025" data-fill-palette-color="accent"></path><path fill="#0077b6" d="M28.987 60.897C42.841 60.897 54.368 60.895 61.567 60.894 72.865 60.894 84.027 53.624 84.027 53.624L80.422 52.808 84.077 42.931H78.998L69.698 51.46 60.4 50.558 65.04 42.456H58.532L44.665 49.743S28.373 49.471 23.267 49.85C17.894 50.247 15.853 54.086 15.853 54.086S12.026 54.895 12.025 57.051 16.598 60.896 28.987 60.897" data-fill-palette-color="accent"></path></g></svg></g></svg></g></svg></g><defs></defs></svg><rect width="395.52" height="118.07934234213262" fill="none" stroke="none" visibility="hidden"></rect></g></svg></g></svg>